# Blender v2.92.0 OBJ File: 'window.blend'
# www.blender.org
mtllib elec_outlet.mtl
o Cube.001_Cube
v 0.183873 -0.499146 0.499146
v 0.183873 0.499146 0.499146
v 0.183873 -0.499146 -0.499146
v 0.183873 0.499146 -0.499146
v 0.000000 -1.000000 1.000000
v 0.000000 1.000000 1.000000
v 0.000000 -1.000000 -1.000000
v 0.000000 1.000000 -1.000000
v 0.129915 -1.000000 -1.000000
v 0.129915 -1.000000 1.000000
v 0.129915 1.000000 1.000000
v 0.129915 1.000000 -1.000000
v 0.165760 -0.652166 -0.270136
v 0.154635 -0.705899 0.000000
v 0.165760 -0.652166 0.270136
v 0.197281 -0.270136 0.652166
v 0.202108 0.000000 0.705899
v 0.197281 0.270136 0.652166
v 0.165760 0.652166 0.270136
v 0.154635 0.705899 -0.000000
v 0.165760 0.652166 -0.270136
v 0.197281 0.270136 -0.652166
v 0.202108 -0.000000 -0.705899
v 0.197281 -0.270136 -0.652166
v 0.274107 -0.595396 0.246621
v 0.287474 -0.455696 0.455696
v 0.298269 0.246621 0.595396
v 0.287474 0.455696 0.455696
v 0.274107 0.595396 -0.246621
v 0.287474 0.455696 -0.455696
v 0.298269 -0.246621 -0.595396
v 0.287474 -0.455696 -0.455696
v 0.274107 -0.595396 -0.246621
v 0.267186 -0.644452 0.000000
v 0.298269 -0.246621 0.595396
v 0.302269 0.000000 0.644452
v 0.274107 0.595396 0.246621
v 0.267186 0.644452 -0.000000
v 0.298269 0.246621 -0.595396
v 0.302269 -0.000000 -0.644452
v 0.265920 -0.652166 0.270136
v 0.284034 -0.499146 0.499146
v 0.297441 0.270136 0.652166
v 0.284034 0.499146 0.499146
v 0.265920 0.652166 -0.270136
v 0.284034 0.499146 -0.499146
v 0.297441 -0.270136 -0.652166
v 0.284034 -0.499146 -0.499146
v 0.265920 -0.652166 -0.270136
v 0.254795 -0.705899 0.000000
v 0.297441 -0.270136 0.652166
v 0.302269 0.000000 0.705899
v 0.265920 0.652166 0.270136
v 0.254795 0.705899 -0.000000
v 0.297441 0.270136 -0.652166
v 0.302269 -0.000000 -0.705899
v 0.043591 -0.595396 0.246621
v 0.043591 -0.455696 0.455696
v 0.043591 0.246621 0.595396
v 0.043591 0.455696 0.455696
v 0.043591 0.595396 -0.246621
v 0.043591 0.455696 -0.455696
v 0.043591 -0.246621 -0.595396
v 0.043591 -0.455696 -0.455696
v 0.043591 -0.595396 -0.246621
v 0.043591 -0.644452 0.000000
v 0.043591 -0.246621 0.595396
v 0.043591 0.000000 0.644452
v 0.043591 0.595396 0.246621
v 0.043591 0.644452 -0.000000
v 0.043591 0.246621 -0.595396
v 0.043591 -0.000000 -0.644452
v 0.202108 -0.000001 1.000000
v 0.202108 0.000002 -1.000000
v 0.041664 -0.269753 0.018841
v 0.041664 -0.317357 0.063612
v 0.041664 -0.379932 0.044770
v 0.041664 -0.394902 -0.018841
v 0.041664 -0.347297 -0.063612
v 0.041664 -0.284723 -0.044770
v 0.315131 -0.269753 0.018841
v 0.315131 -0.317357 0.063612
v 0.315131 -0.379932 0.044770
v 0.315131 -0.394902 -0.018841
v 0.315131 -0.347297 -0.063612
v 0.315131 -0.284723 -0.044770
vt 0.612229 0.409101
vt 0.650612 0.409101
vt 0.650612 0.999291
vt 0.612229 0.999291
vt 0.590899 0.704196
vt 0.650612 0.409101
vt 0.688996 0.409101
vt 0.710325 0.699760
vt 0.688996 0.990420
vt 0.650612 0.990420
vt 0.787092 0.409101
vt 0.787092 0.990927
vt 0.748709 0.990927
vt 0.748709 0.409101
vt 0.748709 0.409101
vt 0.748708 0.999555
vt 0.710325 0.999555
vt 0.710325 0.409101
vt 0.442923 0.147977
vt 0.590899 0.000000
vt 0.590899 0.590899
vt 0.442923 0.442922
vt 0.488132 0.375261
vt 0.504008 0.295450
vt 0.488132 0.215638
vt 0.147978 0.147977
vt 0.000000 0.000000
vt 0.295451 0.000000
vt 0.295451 0.086892
vt 0.215639 0.102768
vt 0.147978 0.442922
vt 0.000000 0.590899
vt 0.102768 0.215638
vt 0.086892 0.295450
vt 0.102768 0.375261
vt 0.295450 0.590899
vt 0.295451 0.504007
vt 0.375262 0.488132
vt 0.962221 0.474467
vt 0.932628 0.474467
vt 0.936590 0.409101
vt 0.966182 0.409101
vt 0.931202 0.674237
vt 0.859147 0.674237
vt 0.859147 0.620619
vt 0.927253 0.620619
vt 0.962221 0.633898
vt 0.932628 0.633898
vt 0.931202 0.553405
vt 0.960794 0.553405
vt 0.822072 0.968332
vt 0.792480 0.968332
vt 0.788519 0.909875
vt 0.818111 0.909875
vt 0.787092 0.834205
vt 0.816685 0.834205
vt 0.788519 0.752840
vt 0.818111 0.752840
vt 0.555934 0.885622
vt 0.526342 0.885622
vt 0.531693 0.819767
vt 0.561285 0.819767
vt 0.862434 0.890139
vt 0.892026 0.890139
vt 0.897378 0.964653
vt 0.867786 0.964653
vt 0.534980 0.740632
vt 0.564572 0.740632
vt 0.867786 0.674237
vt 0.897378 0.674237
vt 0.892026 0.732967
vt 0.862434 0.732967
vt 0.792480 0.678168
vt 0.822072 0.678168
vt 0.531693 0.660264
vt 0.561285 0.660264
vt 0.888739 0.808781
vt 0.859147 0.808781
vt 0.526342 0.590899
vt 0.555934 0.590899
vt 0.966182 0.703692
vt 0.936590 0.703692
vt 0.637135 0.098768
vt 0.622041 0.088682
vt 0.679582 0.031141
vt 0.689668 0.046236
vt 0.689667 0.362864
vt 0.679581 0.377959
vt 0.622040 0.320418
vt 0.637135 0.310332
vt 0.953764 0.310332
vt 0.968859 0.320419
vt 0.911318 0.377960
vt 0.901232 0.362865
vt 0.901232 0.046236
vt 0.911318 0.031141
vt 0.968859 0.088682
vt 0.953764 0.098768
vt 0.832596 0.017806
vt 0.836138 0.000000
vt 0.758304 0.017806
vt 0.754762 0.000000
vt 0.608705 0.167404
vt 0.590899 0.163862
vt 0.608705 0.241696
vt 0.590899 0.245237
vt 0.758304 0.391295
vt 0.754762 0.409101
vt 0.832596 0.391295
vt 0.836137 0.409101
vt 0.982194 0.241696
vt 1.000000 0.245238
vt 0.982194 0.167404
vt 1.000000 0.163862
vt 0.373489 0.740498
vt 0.373489 0.814790
vt 0.345059 0.883426
vt 0.292527 0.935958
vt 0.223890 0.964388
vt 0.091117 0.777785
vt 0.107492 0.767555
vt 0.106820 0.748260
vt 0.089774 0.739193
vt 0.223890 0.590899
vt 0.292527 0.619330
vt 0.345059 0.671862
vt 0.525160 0.659071
vt 0.449915 0.659071
vt 0.449915 0.590899
vt 0.521970 0.590899
vt 0.859147 0.551404
vt 0.925208 0.551404
vt 0.787092 0.409101
vt 0.859147 0.409101
vt 0.859147 0.469223
vt 0.791041 0.469223
vt 0.859147 0.477128
vt 0.927253 0.477129
vt 0.859147 0.541470
vt 0.793086 0.541470
vt 0.521970 0.855805
vt 0.449915 0.855805
vt 0.449915 0.802437
vt 0.525160 0.802437
vt 0.859147 0.614841
vt 0.791041 0.614841
vt 0.449915 0.733353
vt 0.526342 0.733353
vt 0.377860 0.590899
vt 0.449915 0.590899
vt 0.449915 0.654618
vt 0.374671 0.654618
vt 0.859147 0.678168
vt 0.787092 0.678168
vt 0.449915 0.728104
vt 0.373489 0.728104
vt 0.374671 0.800171
vt 0.449915 0.800171
vt 0.449915 0.859847
vt 0.377860 0.859847
vt 0.859147 0.409101
vt 0.931202 0.409101
vt 0.375262 0.102767
vt 0.215639 0.488132
vt 0.822072 0.868721
vt 0.822072 0.849413
vt 0.838793 0.839760
vt 0.855514 0.849413
vt 0.855514 0.868721
vt 0.838793 0.878375
vt 0.149599 0.964388
vt 0.080962 0.935958
vt 0.028430 0.883426
vt 0.000000 0.814790
vt 0.000000 0.740498
vt 0.028430 0.671862
vt 0.080962 0.619330
vt 0.149599 0.590899
vt 0.073399 0.749422
vt 0.074070 0.768718
vt 0.564572 0.752491
vt 0.564572 0.671695
vt 0.583524 0.671695
vt 0.583524 0.752491
vt 0.840810 0.839760
vt 0.840810 0.758964
vt 0.854210 0.758964
vt 0.854210 0.839760
vt 0.855471 0.678168
vt 0.855471 0.758964
vt 0.838281 0.758964
vt 0.838281 0.678168
vt 0.822072 0.839760
vt 0.822072 0.758964
vt 0.564572 0.671695
vt 0.564572 0.590899
vt 0.583850 0.590899
vt 0.583850 0.671695
vt 0.822072 0.758964
vt 0.822072 0.678168
vn 0.0000 0.0000 -1.0000
vn 0.0000 0.0000 1.0000
vn 0.0000 -1.0000 0.0000
vn 0.0000 1.0000 0.0000
vn 0.9963 -0.0848 0.0164
vn 0.9963 -0.0849 0.0163
vn 0.9963 -0.0849 -0.0163
vn 0.9963 -0.0848 -0.0164
vn 0.9947 -0.1028 -0.0000
vn 0.9963 0.0848 0.0164
vn 0.9963 0.0849 0.0163
vn 0.9995 -0.0000 0.0328
vn 0.9972 0.0669 0.0327
vn 0.9963 0.0848 -0.0164
vn 0.9963 0.0849 -0.0163
vn 0.9947 0.1028 0.0000
vn 0.9995 0.0000 -0.0328
vn 0.9972 -0.0669 -0.0327
vn 0.0000 -0.3865 -0.9223
vn 0.0000 -0.3788 -0.9255
vn 0.0000 -0.7019 -0.7122
vn 0.0000 -0.7122 -0.7020
vn 0.0000 -0.7028 -0.7114
vn 0.0000 -0.7071 -0.7071
vn 0.0000 -0.9239 -0.3827
vn 0.0000 -0.9219 -0.3874
vn 0.0000 0.3865 -0.9223
vn 0.0000 0.3788 -0.9255
vn 0.0000 -0.7122 0.7020
vn 0.0000 -0.7019 0.7122
vn 0.0000 -0.3788 0.9255
vn 0.0000 -0.3865 0.9223
vn 0.0000 0.3788 0.9255
vn 0.0000 0.3865 0.9223
vn 0.0000 0.7122 0.7020
vn 0.0000 0.7019 0.7122
vn 0.0000 0.9213 0.3888
vn 0.0000 0.9264 0.3764
vn 0.0000 -0.9264 0.3764
vn 0.0000 -0.9213 0.3888
vn 0.0000 -0.9213 -0.3888
vn 0.0000 -0.9264 -0.3764
vn 0.0000 0.9213 -0.3888
vn 0.0000 0.9264 -0.3764
vn 0.0000 0.7019 -0.7122
vn 0.0000 0.7122 -0.7020
vn 0.9964 -0.0852 0.0039
vn 0.9963 -0.0853 0.0039
vn 0.9898 -0.1423 0.0018
vn 0.9899 -0.1421 0.0018
vn 0.9964 0.0852 0.0039
vn 0.9963 0.0853 0.0039
vn 0.9993 0.0378 0.0037
vn 0.9964 0.0852 -0.0039
vn 0.9963 0.0853 -0.0039
vn 0.9898 0.1423 -0.0018
vn 0.9899 0.1421 -0.0018
vn 0.9964 -0.0852 -0.0039
vn 0.9963 -0.0853 -0.0039
vn 0.9993 -0.0378 -0.0037
vn 0.9899 -0.1421 -0.0018
vn 0.9898 -0.1423 -0.0018
vn 0.9852 -0.1715 0.0000
vn 0.9993 -0.0378 0.0037
vn 1.0000 -0.0000 0.0035
vn 0.9899 0.1421 0.0018
vn 0.9898 0.1423 0.0018
vn 0.9852 0.1715 -0.0000
vn 0.9993 0.0378 -0.0037
vn 1.0000 0.0000 -0.0035
vn 1.0000 -0.0017 0.0003
vn 1.0000 -0.0001 0.0000
vn 1.0000 0.0012 -0.0002
vn 1.0000 0.0014 -0.0003
vn 1.0000 -0.0003 0.0001
vn 0.0000 0.3792 0.9253
vn 0.0000 0.3827 0.9239
vn 0.0000 0.7071 0.7071
vn 0.0000 0.7028 0.7114
vn 0.0000 0.9239 0.3827
vn 0.0000 0.9219 0.3874
vn 0.0000 -0.9239 0.3827
vn 0.0000 -0.9219 0.3874
vn 0.0000 -0.7028 0.7114
vn 0.0000 -0.7071 0.7071
vn 0.0000 -0.3827 0.9239
vn 0.0000 -0.3792 0.9253
vn 0.0000 0.9239 -0.3827
vn 0.0000 0.9219 -0.3874
vn 0.0000 0.7028 -0.7114
vn 0.0000 0.7071 -0.7071
vn 0.0000 0.3827 -0.9239
vn 0.0000 0.3792 -0.9253
vn 0.0000 -0.3792 -0.9253
vn 0.0000 -0.3827 -0.9239
vn 0.9972 -0.0669 0.0327
vn 0.9972 0.0669 -0.0327
vn 1.0000 0.0000 0.0000
vn 1.0000 0.0028 -0.0006
vn 0.0000 0.9734 -0.2291
vn 0.0000 -0.6851 -0.7285
vn 0.0000 -0.2883 0.9575
vn 0.0000 0.2883 -0.9575
vn 0.0000 -0.9734 0.2291
vn 0.0000 0.6851 0.7285
usemtl Material
s 1
f 9/1/1 7/2/1 8/3/1 12/4/1 74/5/1
f 5/6/2 10/7/2 73/8/2 11/9/2 6/10/2
f 9/11/3 10/12/3 5/13/3 7/14/3
f 8/15/4 6/16/4 11/17/4 12/18/4
f 1/19/5 10/20/6 9/21/7 3/22/8 13/23/9 14/24/9 15/25/9
f 2/26/10 11/27/11 73/28/12 17/29/12 18/30/13
f 4/31/14 12/32/15 11/27/11 2/26/10 19/33/16 20/34/16 21/35/16
f 3/22/8 9/21/7 74/36/17 23/37/17 24/38/18
f 24/39/19 47/40/20 48/41/21 3/42/22
f 28/43/23 60/44/24 69/45/25 37/46/26
f 22/47/27 55/48/28 56/49/1 23/50/1
f 1/51/29 42/52/30 51/53/31 16/54/32
f 23/50/1 56/49/1 47/40/20 24/39/19
f 16/54/32 51/53/31 52/55/2 17/56/2
f 17/56/2 52/55/2 43/57/33 18/58/34
f 2/59/35 44/60/36 53/61/37 19/62/38
f 15/63/39 41/64/40 42/65/30 1/66/29
f 19/62/38 53/61/37 54/67/4 20/68/4
f 3/69/22 48/70/21 49/71/41 13/72/42
f 18/58/34 43/57/33 44/73/36 2/74/35
f 20/68/4 54/67/4 45/75/43 21/76/44
f 13/72/42 49/71/41 50/77/3 14/78/3
f 21/76/44 45/75/43 46/79/45 4/80/46
f 4/81/46 46/82/45 55/48/28 22/47/27
f 14/78/3 50/77/3 41/64/40 15/63/39
f 26/83/47 42/84/48 41/85/49 25/86/50
f 28/87/51 44/88/52 43/89/53 27/90/53
f 30/91/54 46/92/55 45/93/56 29/94/57
f 32/95/58 48/96/59 47/97/60 31/98/60
f 33/99/61 49/100/62 48/96/59 32/95/58
f 34/101/63 50/102/63 49/100/62 33/99/61
f 25/86/50 41/85/49 50/102/63 34/101/63
f 35/103/64 51/104/64 42/84/48 26/83/47
f 36/105/65 52/106/65 51/104/64 35/103/64
f 27/90/53 43/89/53 52/106/65 36/105/65
f 37/107/66 53/108/67 44/88/52 28/87/51
f 38/109/68 54/110/68 53/108/67 37/107/66
f 29/94/57 45/93/56 54/110/68 38/109/68
f 39/111/69 55/112/69 46/92/55 30/91/54
f 40/113/70 56/114/70 55/112/69 39/111/69
f 31/98/60 47/97/60 56/114/70 40/113/70
f 61/115/71 70/116/71 69/117/71 60/118/71 59/119/72 76/120/73 75/121/71 80/122/71 79/123/74 72/124/75 71/125/71 62/126/71
f 31/127/76 63/128/77 64/129/78 32/130/79
f 37/46/26 69/45/25 70/131/3 38/132/3
f 32/133/79 64/134/78 65/135/80 33/136/81
f 38/132/3 70/131/3 61/137/82 29/138/83
f 33/136/81 65/135/80 66/139/4 34/140/4
f 30/141/84 62/142/85 71/143/86 39/144/87
f 34/140/4 66/139/4 57/145/88 25/146/89
f 39/144/87 71/143/86 72/147/2 40/148/2
f 26/149/90 58/150/91 67/151/92 35/152/93
f 25/146/89 57/145/88 58/153/91 26/154/90
f 40/148/2 72/147/2 63/128/77 31/127/76
f 35/152/93 67/151/92 68/155/1 36/156/1
f 27/157/94 59/158/95 60/159/24 28/160/23
f 36/156/1 68/155/1 59/158/95 27/157/94
f 29/138/83 61/137/82 62/161/85 30/162/84
f 73/28/12 10/20/6 1/19/5 16/163/96 17/29/12
f 74/36/17 12/32/15 4/31/14 22/164/97 23/37/17
f 84/165/98 85/166/98 86/167/98 81/168/98 82/169/98 83/170/98
f 59/119/72 68/171/99 67/172/99 58/173/99 57/174/99 66/175/99 65/176/99 64/177/99 63/178/99 72/124/75 79/123/74 78/179/99 77/180/99 76/120/73
f 75/181/100 81/182/100 86/183/100 80/184/100
f 79/185/101 85/186/101 84/187/101 78/188/101
f 77/189/102 83/190/102 82/191/102 76/192/102
f 80/193/103 86/194/103 85/186/103 79/185/103
f 78/195/104 84/196/104 83/197/104 77/198/104
f 76/192/105 82/191/105 81/199/105 75/200/105
